<svg width="177" height="31" viewBox="0 0 177 31" fill="none" xmlns="http://www.w3.org/2000/svg">
<path d="M8.886 0.557999C13.254 0.557999 16.6 1.342 18.924 2.91C21.248 4.45 22.41 6.858 22.41 10.134C22.41 12.178 21.934 13.844 20.982 15.132C20.058 16.392 18.714 17.386 16.95 18.114C17.538 18.842 18.154 19.682 18.798 20.634C19.442 21.558 20.072 22.538 20.688 23.574C21.332 24.582 21.948 25.646 22.536 26.766C23.124 27.858 23.67 28.936 24.174 30H16.824C16.292 29.048 15.746 28.082 15.186 27.102C14.654 26.122 14.094 25.17 13.506 24.246C12.946 23.322 12.386 22.454 11.826 21.642C11.266 20.802 10.706 20.046 10.146 19.374H6.912V30H0.36V1.314C1.788 1.034 3.258 0.837999 4.77 0.725999C6.31 0.613999 7.682 0.557999 8.886 0.557999ZM9.264 6.144C8.788 6.144 8.354 6.158 7.962 6.186C7.598 6.214 7.248 6.242 6.912 6.27V14.166H8.76C11.224 14.166 12.988 13.858 14.052 13.242C15.116 12.626 15.648 11.576 15.648 10.092C15.648 8.664 15.102 7.656 14.01 7.068C12.946 6.452 11.364 6.144 9.264 6.144ZM28.3737 0.893999H34.9257V30H28.3737V0.893999ZM58.8407 30C58.2527 29.048 57.5527 28.026 56.7407 26.934C55.9567 25.814 55.0887 24.708 54.1367 23.616C53.2127 22.496 52.2467 21.432 51.2387 20.424C50.2307 19.388 49.2227 18.478 48.2147 17.694V30H41.6627V0.893999H48.2147V11.898C49.9227 10.106 51.6307 8.244 53.3387 6.312C55.0747 4.352 56.6847 2.546 58.1687 0.893999H65.9387C63.9507 3.246 61.9487 5.514 59.9327 7.698C57.9447 9.882 55.8447 12.08 53.6327 14.292C55.9567 16.224 58.1967 18.52 60.3527 21.18C62.5367 23.84 64.6227 26.78 66.6107 30H58.8407ZM73.5788 15.426C73.5788 16.854 73.7468 18.142 74.0828 19.29C74.4468 20.438 74.9508 21.432 75.5948 22.272C76.2668 23.084 77.0788 23.714 78.0308 24.162C78.9828 24.61 80.0748 24.834 81.3068 24.834C82.5108 24.834 83.5888 24.61 84.5408 24.162C85.5208 23.714 86.3328 23.084 86.9768 22.272C87.6488 21.432 88.1528 20.438 88.4888 19.29C88.8528 18.142 89.0348 16.854 89.0348 15.426C89.0348 13.998 88.8528 12.71 88.4888 11.562C88.1528 10.386 87.6488 9.392 86.9768 8.58C86.3328 7.74 85.5208 7.096 84.5408 6.648C83.5888 6.2 82.5108 5.976 81.3068 5.976C80.0748 5.976 78.9828 6.214 78.0308 6.69C77.0788 7.138 76.2668 7.782 75.5948 8.622C74.9508 9.434 74.4468 10.428 74.0828 11.604C73.7468 12.752 73.5788 14.026 73.5788 15.426ZM95.7968 15.426C95.7968 17.918 95.4188 20.116 94.6628 22.02C93.9348 23.896 92.9268 25.478 91.6388 26.766C90.3508 28.026 88.8108 28.978 87.0188 29.622C85.2548 30.266 83.3508 30.588 81.3068 30.588C79.3188 30.588 77.4428 30.266 75.6788 29.622C73.9148 28.978 72.3748 28.026 71.0588 26.766C69.7428 25.478 68.7068 23.896 67.9508 22.02C67.1948 20.116 66.8168 17.918 66.8168 15.426C66.8168 12.934 67.2088 10.75 67.9928 8.874C68.7768 6.97 69.8268 5.374 71.1428 4.086C72.4868 2.798 74.0268 1.832 75.7628 1.188C77.5268 0.543998 79.3748 0.221998 81.3068 0.221998C83.2948 0.221998 85.1708 0.543998 86.9348 1.188C88.6988 1.832 90.2388 2.798 91.5548 4.086C92.8708 5.374 93.9068 6.97 94.6628 8.874C95.4188 10.75 95.7968 12.934 95.7968 15.426ZM121.862 0.893999V6.48H113.084V30H106.532V6.48H97.7541V0.893999H121.862ZM148.768 0.893999V6.48H139.99V30H133.438V6.48H124.66V0.893999H148.768ZM169.022 30C168.714 28.992 168.364 27.956 167.972 26.892C167.608 25.828 167.244 24.764 166.88 23.7H155.54C155.176 24.764 154.798 25.828 154.406 26.892C154.042 27.956 153.706 28.992 153.398 30H146.594C147.686 26.864 148.722 23.966 149.702 21.306C150.682 18.646 151.634 16.14 152.558 13.788C153.51 11.436 154.434 9.21 155.33 7.11C156.254 4.982 157.206 2.91 158.186 0.893999H164.444C165.396 2.91 166.334 4.982 167.258 7.11C168.182 9.21 169.106 11.436 170.03 13.788C170.982 16.14 171.948 18.646 172.928 21.306C173.908 23.966 174.944 26.864 176.036 30H169.022ZM161.168 7.488C161.028 7.908 160.818 8.482 160.538 9.21C160.258 9.938 159.936 10.778 159.572 11.73C159.208 12.682 158.802 13.732 158.354 14.88C157.934 16.028 157.5 17.232 157.052 18.492H165.326C164.878 17.232 164.444 16.028 164.024 14.88C163.604 13.732 163.198 12.682 162.806 11.73C162.442 10.778 162.12 9.938 161.84 9.21C161.56 8.482 161.336 7.908 161.168 7.488Z" fill="#011632"/>
</svg>
