<svg width="20" height="20" viewBox="0 0 20 20" fill="none" xmlns="http://www.w3.org/2000/svg">
<g clip-path="url(#clip0_201_4766)">
<path d="M10 9.99903C10.9889 9.99903 11.9556 9.70578 12.7779 9.15637C13.6001 8.60697 14.241 7.82607 14.6194 6.91244C14.9978 5.99881 15.0969 4.99348 14.9039 4.02357C14.711 3.05367 14.2348 2.16275 13.5355 1.46349C12.8363 0.764229 11.9454 0.288025 10.9755 0.0950993C10.0055 -0.0978268 9.00021 0.00118987 8.08658 0.379628C7.17295 0.758066 6.39206 1.39893 5.84265 2.22117C5.29324 3.04342 5 4.01012 5 4.99903C5.00132 6.3247 5.52853 7.5957 6.46593 8.5331C7.40332 9.47049 8.67432 9.9977 10 9.99903ZM10 1.66569C10.6593 1.66569 11.3037 1.86119 11.8519 2.22746C12.4001 2.59373 12.8273 3.11433 13.0796 3.72341C13.3319 4.3325 13.3979 5.00272 13.2693 5.64933C13.1407 6.29593 12.8232 6.88987 12.357 7.35605C11.8908 7.82222 11.2969 8.13969 10.6503 8.26831C10.0037 8.39693 9.33348 8.33092 8.72439 8.07862C8.1153 7.82633 7.59471 7.39909 7.22843 6.85093C6.86216 6.30276 6.66667 5.6583 6.66667 4.99903C6.66667 4.11497 7.01786 3.26712 7.64298 2.642C8.2681 2.01688 9.11594 1.66569 10 1.66569Z" fill="#AFAFAF"/>
<path d="M10 11.667C8.01155 11.6692 6.10518 12.4601 4.69914 13.8661C3.29309 15.2722 2.50221 17.1785 2.5 19.167C2.5 19.388 2.5878 19.6 2.74408 19.7562C2.90036 19.9125 3.11232 20.0003 3.33333 20.0003C3.55435 20.0003 3.76631 19.9125 3.92259 19.7562C4.07887 19.6 4.16667 19.388 4.16667 19.167C4.16667 17.6199 4.78125 16.1362 5.87521 15.0422C6.96917 13.9482 8.4529 13.3337 10 13.3337C11.5471 13.3337 13.0308 13.9482 14.1248 15.0422C15.2188 16.1362 15.8333 17.6199 15.8333 19.167C15.8333 19.388 15.9211 19.6 16.0774 19.7562C16.2337 19.9125 16.4457 20.0003 16.6667 20.0003C16.8877 20.0003 17.0996 19.9125 17.2559 19.7562C17.4122 19.6 17.5 19.388 17.5 19.167C17.4978 17.1785 16.7069 15.2722 15.3009 13.8661C13.8948 12.4601 11.9884 11.6692 10 11.667Z" fill="#AFAFAF"/>
</g>
<defs>
<clipPath id="clip0_201_4766">
<rect width="20" height="20" fill="white"/>
</clipPath>
</defs>
</svg>
