<svg width="21" height="27" viewBox="0 0 21 27" fill="none" xmlns="http://www.w3.org/2000/svg">
<path d="M1.44914 13.8469L1.44891 13.8463L1.44811 13.8444C1.4046 13.7395 0.610937 11.8259 0.610937 10.0392C0.610937 4.5861 5.04704 0.15 10.5002 0.15C15.9533 0.15 20.3894 4.5861 20.3894 10.0392C20.3894 11.8388 19.5853 13.7666 19.5519 13.8466L19.5518 13.8469C19.292 14.4635 18.7817 15.4179 18.4116 15.9793L18.4115 15.9794L11.699 26.1498C11.699 26.1498 11.699 26.1498 11.699 26.1498C11.4091 26.5893 10.9734 26.85 10.5002 26.85C10.0269 26.85 9.59125 26.5893 9.3013 26.1492L1.44914 13.8469ZM1.44914 13.8469C1.70895 14.4636 2.21974 15.418 2.58929 15.9793L2.58935 15.9794L9.30126 26.1491L1.44914 13.8469ZM18.3055 13.3225L18.306 13.3215L18.3061 13.3213C18.3066 13.3201 18.3094 13.3133 18.3146 13.3004C18.3203 13.2865 18.3284 13.2663 18.3386 13.2402C18.3591 13.188 18.388 13.1125 18.4225 13.0174C18.4917 12.8272 18.5832 12.5591 18.6745 12.2438C18.8575 11.6117 19.0377 10.7959 19.0377 10.0392C19.0377 5.33171 15.2077 1.50167 10.5002 1.50167C5.79264 1.50167 1.96261 5.33171 1.96261 10.0392C1.96261 11.5548 2.68459 13.296 2.69549 13.3223L2.69551 13.3223L2.60314 13.3606L2.69535 13.322L18.3055 13.3225ZM18.3055 13.3225C18.0782 13.8643 17.6084 14.7416 17.2829 15.2352L10.5704 25.4056L10.5704 25.4057M18.3055 13.3225L10.5704 25.4057M10.5704 25.4057C10.5395 25.4526 10.5174 25.4824 10.5004 25.5004L10.5704 25.4057Z" fill="white" stroke="white" stroke-width="0.2"/>
<path d="M10.4999 4.75547C7.5868 4.75547 5.21738 7.12548 5.21738 10.038C5.21738 12.9505 7.5868 15.3205 10.4999 15.3205C13.413 15.3205 15.7824 12.9505 15.7824 10.038C15.7824 7.12548 13.413 4.75547 10.4999 4.75547ZM10.4999 13.9689C8.33298 13.9689 6.56906 12.2055 6.56906 10.038C6.56906 7.87051 8.33298 6.10714 10.4999 6.10714C12.6668 6.10714 14.4308 7.87051 14.4308 10.038C14.4308 12.2055 12.6668 13.9689 10.4999 13.9689Z" fill="white" stroke="white" stroke-width="0.2"/>
</svg>
