<svg width="48" height="48" viewBox="0 0 48 48" fill="none" xmlns="http://www.w3.org/2000/svg">
<g clip-path="url(#clip0_201_3554)">
<path d="M39.9598 4.91746C39.7807 4.57286 39.3559 4.43846 39.0117 4.61754C38.6671 4.79661 38.5327 5.22105 38.7118 5.56565C39.6291 7.33151 39.8217 9.36105 39.2541 11.28C39.0278 12.0468 37.0396 18.7807 36.9528 19.115C36.9356 19.1817 36.8759 19.2286 36.8082 19.2286H20.2152C19.8267 19.2286 19.5121 19.5431 19.5121 19.9317C19.5121 20.3199 19.8267 20.6348 20.2152 20.6348H34.6747L34.2839 22.7834C34.2707 22.8544 34.2092 22.9057 34.1371 22.9057H13.8776C13.8055 22.9057 13.744 22.8544 13.7311 22.7834L13.34 20.6348H17.1534C17.5415 20.6348 17.8565 20.3199 17.8565 19.9317C17.8565 19.5431 17.5415 19.2286 17.1534 19.2286H11.2065C11.1387 19.2286 11.079 19.1821 11.0618 19.1154C11.06 19.1081 11.0578 19.1008 11.056 19.0934L8.76058 11.28C8.06588 8.93038 8.50826 6.45737 9.97456 4.49449C11.4409 2.53197 13.6868 1.40624 16.1368 1.40624C16.8659 1.40624 17.587 1.50805 18.2802 1.70873C22.0269 2.79381 25.9882 2.79381 29.7345 1.70873C30.4277 1.50805 31.1488 1.40624 31.8779 1.40624C33.7628 1.40624 35.5715 2.09032 36.9715 3.33251C37.2619 3.59032 37.7065 3.56395 37.9643 3.27355C38.2221 2.98278 38.1954 2.53856 37.905 2.28075C36.2475 0.810055 34.107 0 31.8779 0C31.0166 0 30.1637 0.120483 29.3434 0.357787C25.8527 1.36889 22.162 1.36889 18.6713 0.357787C17.851 0.120483 16.9981 0 16.1368 0C13.239 0 10.5821 1.33154 8.84773 3.65294C7.11337 5.97434 6.59005 8.89962 7.41183 11.6773L9.70393 19.4805C9.88594 20.1609 10.5023 20.6348 11.2065 20.6348H11.9107L12.3476 23.0349C12.482 23.7751 13.1258 24.3119 13.8776 24.3119H16.9417L17.4383 28.5892L16.9428 28.7218C16.4301 28.8591 16.0016 29.188 15.7365 29.6476C15.471 30.1072 15.4007 30.6426 15.538 31.1549C15.7757 32.0415 16.5802 32.6274 17.4573 32.6274C17.6042 32.6274 17.7532 32.6099 17.9019 32.5758L18.1546 34.7514L17.4844 34.9313C16.4264 35.2147 15.7962 36.306 16.0796 37.3644C16.3173 38.2506 17.1219 38.8369 17.9989 38.8369C18.1689 38.8369 18.341 38.8149 18.5127 38.7688L18.6178 38.7406L18.8705 40.914L18.2967 41.0678C17.784 41.2052 17.3559 41.534 17.0904 41.9936C16.8252 42.4532 16.7549 42.9882 16.8923 43.5009C17.0292 44.0133 17.3581 44.4417 17.8177 44.7072C18.1238 44.8837 18.4633 44.9742 18.8075 44.9742C18.98 44.9742 19.154 44.9515 19.325 44.9057L19.3341 44.9031L19.5257 46.5515C19.6213 47.3773 20.3207 48.0002 21.1524 48.0002H26.8627C27.694 48.0002 28.3934 47.3773 28.4894 46.5515L28.9812 42.3184L29.7184 42.1207C30.776 41.8372 31.4062 40.7459 31.1228 39.688C30.9082 38.8874 30.2311 38.3326 29.4558 38.2323L29.7433 35.7596L30.5306 35.5487C31.5882 35.2656 32.2185 34.1739 31.935 33.116C31.7161 32.2986 31.0155 31.7372 30.2201 31.6544L30.5054 29.2012L31.0719 29.0496C32.1302 28.7658 32.7601 27.6744 32.4767 26.6165C32.2771 25.872 31.6776 25.3402 30.9712 25.1886L31.0734 24.3123H34.1371C34.8893 24.3123 35.5327 23.7751 35.6675 23.0353L36.1043 20.6348H36.8082C37.5168 20.6348 38.1361 20.1551 38.3141 19.4684C38.3759 19.2297 39.7166 14.6791 40.6029 11.6788C41.2738 9.40939 41.0456 7.00815 39.9598 4.91746ZM27.0923 46.3889C27.0787 46.5057 26.9799 46.5936 26.8627 46.5936H21.152C21.0348 46.5936 20.9359 46.5057 20.9224 46.3889L20.7071 44.5351L27.52 42.7095L27.0923 46.3889ZM29.7642 40.0516C29.8473 40.3607 29.6631 40.6793 29.354 40.7624L18.961 43.5471C18.8112 43.5874 18.6548 43.5665 18.5208 43.4892C18.3864 43.4116 18.2904 43.2867 18.2505 43.1369C18.2102 42.9871 18.2308 42.8308 18.3084 42.6967C18.386 42.5623 18.5109 42.4664 18.6607 42.4261L29.0537 39.6414C29.1039 39.6279 29.1541 39.6217 29.2039 39.6217C29.4598 39.6213 29.6949 39.7927 29.7642 40.0516ZM28.0129 38.4644L20.2434 40.5463L19.9911 38.3725L28.2817 36.1511L28.0129 38.4644ZM30.5768 33.4796C30.6595 33.7887 30.4753 34.1077 30.1663 34.1904L18.1487 37.4105C17.8396 37.4936 17.5207 37.3094 17.4379 37.0003C17.3551 36.6913 17.5394 36.3727 17.8484 36.2895L29.866 33.0695C29.9161 33.0559 29.9667 33.0497 30.0161 33.0497C30.2725 33.0497 30.5076 33.2207 30.5768 33.4796ZM31.1184 26.9801C31.2012 27.2892 31.017 27.6082 30.7079 27.6909L26.4115 28.8423C26.0365 28.9426 25.8139 29.3283 25.9146 29.7033C26.0149 30.0782 26.4002 30.3009 26.7755 30.2006L29.0438 29.5927L28.775 31.906L19.5275 34.3838L19.2752 32.2103L23.8154 30.9938C24.1908 30.8931 24.4131 30.5074 24.3128 30.1324C24.2124 29.7575 23.8268 29.5348 23.4514 29.6351L17.6071 31.2014C17.298 31.2842 16.9794 31.1 16.8963 30.7909C16.8564 30.6415 16.8769 30.4851 16.9545 30.3507C17.0318 30.2167 17.157 30.1204 17.3068 30.0804L30.4076 26.57C30.7167 26.4868 31.0356 26.6714 31.1184 26.9801ZM29.5371 25.3472L18.8116 28.2212L18.3575 24.3119H29.6576L29.5371 25.3472Z" fill="white"/>
<path d="M29.3433 4.10787C25.8526 5.11898 22.162 5.11898 18.6713 4.10787C18.2985 4.00021 17.9081 4.21481 17.8004 4.58797C17.6924 4.96077 17.907 5.35079 18.2801 5.45882C20.1533 6.00154 22.0803 6.2729 24.0073 6.2729C25.9343 6.2729 27.8613 6.00154 29.7345 5.45882C30.1076 5.35079 30.3226 4.96077 30.2146 4.58797C30.1065 4.21481 29.7161 4.00021 29.3433 4.10787Z" fill="white"/>
</g>
<defs>
<clipPath id="clip0_201_3554">
<rect width="48" height="48" fill="white"/>
</clipPath>
</defs>
</svg>
