<svg width="48" height="48" viewBox="0 0 48 48" fill="none" xmlns="http://www.w3.org/2000/svg">
<g clip-path="url(#clip0_201_3514)">
<path d="M6.06921 19.1796C8.26784 23.3768 11.6254 25.9832 14.8449 27.5992C19.99 30.1816 25.5275 30.5076 30.7602 28.5802L30.8554 28.5454" stroke="white" stroke-width="1.5" stroke-miterlimit="10" stroke-linecap="round" stroke-linejoin="round"/>
<path d="M33.8091 27.1816C36.7694 25.5456 39.7673 23.0367 41.7863 19.196" stroke="white" stroke-width="1.5" stroke-miterlimit="10" stroke-linecap="round" stroke-linejoin="round"/>
<path d="M0.693115 18.5166C1.49655 19.4822 2.3059 20.4408 3.11712 21.3972C7.18755 26.1967 11.1466 30.9178 16.4514 33.7796C21.5462 36.5283 26.4405 36.5353 31.5487 33.7795C36.8533 30.9178 40.8124 26.1967 44.8828 21.3972C45.694 20.4408 46.5034 19.4822 47.3068 18.5166" stroke="white" stroke-width="1.5" stroke-miterlimit="10" stroke-linecap="round" stroke-linejoin="round"/>
<path d="M19.4174 20.1345V23.2529C19.4174 23.7475 19.8182 24.1484 20.3129 24.1484H23.085C23.5795 24.1484 23.9805 23.7475 23.9805 23.2529V20.2263" stroke="white" stroke-width="1.5" stroke-miterlimit="10" stroke-linecap="round" stroke-linejoin="round"/>
<path d="M23.9875 20.2263V23.2529C23.9875 23.7476 24.3885 24.1484 24.883 24.1484H27.6552C28.1498 24.1484 28.5506 23.7476 28.5506 23.2529V20.1345" stroke="white" stroke-width="1.5" stroke-miterlimit="10" stroke-linecap="round" stroke-linejoin="round"/>
<path d="M28.5825 20.1345V23.3765C28.5825 23.8028 28.9282 24.1484 29.3545 24.1484H31.744C32.1702 24.1484 32.5158 23.8028 32.5158 23.3765V19.9528" stroke="white" stroke-width="1.5" stroke-miterlimit="10" stroke-linecap="round" stroke-linejoin="round"/>
<path d="M32.5159 19.954V22.0646C32.5159 22.4679 32.8429 22.7949 33.2462 22.7949H35.507C35.9104 22.7949 36.2374 22.4679 36.2374 22.0646V19.7034" stroke="white" stroke-width="1.5" stroke-miterlimit="10" stroke-linecap="round" stroke-linejoin="round"/>
<path d="M19.4173 20.1345V23.3765C19.4173 23.8028 19.0716 24.1484 18.6454 24.1484H16.2559C15.8296 24.1484 15.484 23.8028 15.484 23.3765V19.9528" stroke="white" stroke-width="1.5" stroke-miterlimit="10" stroke-linecap="round" stroke-linejoin="round"/>
<path d="M15.4841 19.9541V22.0646C15.4841 22.4679 15.1571 22.7949 14.7538 22.7949H12.493C12.0896 22.7949 11.7626 22.4679 11.7626 22.0646V19.7034" stroke="white" stroke-width="1.5" stroke-miterlimit="10" stroke-linecap="round" stroke-linejoin="round"/>
<path d="M15.4425 11.1329C18.3598 10.0673 21.3401 9.87516 24.0001 12.19C29.1946 7.6695 35.6107 12.7099 40.3933 15.1439C42.6781 16.3068 45.0023 17.381 47.2972 18.5213C47.2972 18.5213 36.2394 20.1698 24.0098 20.2264V20.2266C24.0066 20.2266 24.0033 20.2265 24.0001 20.2265C23.9969 20.2265 23.9936 20.2266 23.9903 20.2266V20.2264C11.7607 20.1698 0.703003 18.5213 0.703003 18.5213C2.99791 17.381 5.32206 16.3068 7.60685 15.1439C9.06756 14.4005 10.6806 13.414 12.3648 12.531L12.5072 12.4567" stroke="white" stroke-width="1.5" stroke-miterlimit="10" stroke-linecap="round" stroke-linejoin="round"/>
<path d="M39.3602 34.0441C39.0561 34.689 38.1753 36.2639 36.6232 36.7996C36.5029 36.8412 36.5029 37.0123 36.6232 37.0538C38.1753 37.5895 39.0561 39.1644 39.3602 39.8093C39.4089 39.9125 39.5558 39.9125 39.6044 39.8093C39.9085 39.1644 40.7893 37.5895 42.3415 37.0538C42.4617 37.0123 42.4617 36.8412 42.3415 36.7996C40.7893 36.2639 39.9085 34.689 39.6044 34.0441C39.5558 33.9409 39.4089 33.9409 39.3602 34.0441Z" stroke="white" stroke-width="1.5" stroke-miterlimit="10" stroke-linecap="round" stroke-linejoin="round"/>
<path d="M9.46221 1.76723C9.04333 2.65552 7.83021 4.8247 5.69243 5.56252C5.52668 5.6197 5.52668 5.85539 5.69243 5.91258C7.83021 6.65039 9.04333 8.81967 9.46221 9.70786C9.52924 9.84998 9.73155 9.84998 9.79858 9.70786C10.2175 8.81967 11.4306 6.65039 13.5684 5.91258C13.734 5.85539 13.734 5.6197 13.5684 5.56252C11.4306 4.8247 10.2175 2.65552 9.79858 1.76723C9.73155 1.62511 9.52924 1.62511 9.46221 1.76723Z" stroke="white" stroke-width="1.5" stroke-miterlimit="10" stroke-linecap="round" stroke-linejoin="round"/>
<path d="M32.4408 38.2907C32.022 39.179 30.8088 41.3481 28.6711 42.086C28.5053 42.1431 28.5053 42.3788 28.6711 42.436C30.8088 43.1738 32.022 45.3431 32.4408 46.2313C32.5078 46.3734 32.7102 46.3734 32.7772 46.2313C33.1961 45.3431 34.4092 43.1738 36.547 42.436C36.7127 42.3788 36.7127 42.1431 36.547 42.086C34.4092 41.3481 33.1961 39.179 32.7772 38.2907C32.7102 38.1485 32.5078 38.1485 32.4408 38.2907Z" stroke="white" stroke-width="1.5" stroke-miterlimit="10" stroke-linecap="round" stroke-linejoin="round"/>
</g>
<defs>
<clipPath id="clip0_201_3514">
<rect width="48" height="48" fill="white"/>
</clipPath>
</defs>
</svg>
