<svg width="46" height="48" viewBox="0 0 46 48" fill="none" xmlns="http://www.w3.org/2000/svg">
<path d="M40.2973 4.25077C39.1423 3.21877 37.8245 2.37877 36.3875 1.79827C34.9153 1.20352 33.3418 0.887016 31.7578 0.810516C31.4758 0.797016 31.193 0.791016 30.911 0.791016C29.4328 0.794766 27.9148 1.17877 26.519 1.90252C24.317 3.04477 21.6898 3.04402 19.4885 1.90252C18.0928 1.17877 16.574 0.794766 15.0965 0.791016C13.5058 0.791016 11.9158 1.00852 10.403 1.51102C8.93302 1.99927 7.55752 2.75002 6.34552 3.71377C6.12952 3.88552 5.91727 4.06477 5.71102 4.25002C2.65027 6.99277 1.01677 11.0923 1.22902 15.5C1.43377 19.4893 2.75152 24.8225 7.73377 27.9808C7.70527 29.09 7.68277 30.2315 7.76077 31.3858C7.81402 32.0878 7.87477 32.8835 7.99927 33.674C8.67427 38.0405 10.0063 42.9223 14.7658 46.0205C15.908 46.7638 17.7553 47.8408 19.004 46.6693C19.8755 45.851 20.0938 44.3758 20.1553 43.2395C20.1575 43.1863 20.4463 38.2963 23.0383 33.4633C24.0853 35.1905 25.7233 38.6255 26.303 43.889C26.4658 45.3665 27.1025 47.2093 28.8935 47.2093C29.8258 47.2093 30.6703 46.6933 31.0063 46.4885C33.8248 44.7688 35.7913 42.4303 37.0183 39.341C38.483 35.6675 38.627 32.0945 38.3383 27.9463C43.2905 24.77 44.5828 19.463 44.7688 15.4918C44.9923 11.0855 43.3618 6.98827 40.2973 4.25077ZM28.7435 23.552C27.4655 22.6528 25.6858 21.6508 23.6435 20.9045C23.1965 20.741 22.7968 20.627 22.358 20.9045C20.321 21.6485 18.545 22.6468 17.2685 23.5445C17.0465 20.615 16.1885 17.6593 15.392 15.5143L20.714 16.8958C22.3655 17.3255 24.1093 17.315 25.7548 16.8658L30.5908 15.506C29.813 17.6743 28.9625 20.6278 28.7435 23.552ZM23.7928 30.6343C23.558 30.374 23.219 30.2383 22.8673 30.266C22.5185 30.2938 22.202 30.4828 22.0123 30.7775C18.2968 36.5315 17.924 42.854 17.9105 43.1188C17.9098 43.127 17.9083 43.1345 17.9083 43.1428C14.9668 36.08 16.796 28.0325 17.1845 26.519C17.612 26.0038 19.9198 24.218 23.0008 23.0653C26.1283 24.2353 28.4615 26.06 28.8373 26.543C29.2835 28.0123 31.5268 36.221 28.5035 43.361C27.4963 34.8418 23.9458 30.8023 23.7928 30.6343ZM15.83 44.0188C11.948 41.393 10.8125 37.1495 10.2215 33.3253C10.1105 32.6218 10.0535 31.8733 10.004 31.2223C9.92752 30.101 9.95677 28.9843 9.98752 27.8C10.004 27.1295 9.92902 26.6758 9.31252 26.3173C4.82077 23.708 3.65677 18.935 3.47452 15.3853C3.29527 11.6608 4.65652 8.21152 7.21102 5.92252C8.75077 4.54252 10.6393 3.62152 12.6725 3.24802C14.6465 2.88577 16.643 2.95927 18.4513 3.89677C21.3005 5.37427 24.7033 5.37502 27.5533 3.89677C28.6318 3.33727 29.7943 3.04027 30.9155 3.03802C32.4913 3.03802 34.0655 3.29152 35.531 3.88102C36.7295 4.36327 37.8343 5.06152 38.7958 5.92402C41.351 8.20702 42.71 11.6518 42.5225 15.3785C42.356 18.9515 41.1965 23.7545 36.6238 26.3683C36.287 26.561 36.0148 27.0298 36.0523 27.4415C36.38 31.5733 36.314 35.0353 34.9295 38.507C34.016 40.8073 32.6203 42.6148 30.6793 44.0075C32.8828 38.6353 32.7335 32.3825 31.2605 26.834C30.3515 23.411 31.5425 19.5178 32.7073 16.265C32.987 15.4843 32.8108 14.6218 32.2475 14.0113C31.6783 13.3978 30.8233 13.1525 30.02 13.3715L25.1615 14.6938C23.8933 15.0388 22.5508 15.047 21.2773 14.717L15.9553 13.3355C15.152 13.1263 14.3045 13.3783 13.7443 13.9918C13.1878 14.6015 13.0153 15.461 13.2935 16.2358C14.405 19.3325 15.605 22.7983 14.951 26.126C14.5123 28.3565 14.1088 30.5428 14.0173 32.825C13.9445 34.643 14.0188 36.4693 14.276 38.2708C14.4845 39.7288 14.8175 41.1853 15.2878 42.5818C15.2878 42.5818 15.6208 43.7608 15.83 44.0188Z" fill="white" stroke="#25B4F8" stroke-width="0.7"/>
</svg>
