<svg width="43" height="23" viewBox="0 0 43 23" fill="none" xmlns="http://www.w3.org/2000/svg">
<path d="M0.333008 11.582C0.333008 10.9492 1.04552 10.4262 1.96995 10.3434L2.22695 10.332L40.1057 10.332C41.1517 10.332 41.9997 10.8917 41.9997 11.582C41.9997 12.2149 41.2872 12.7378 40.3627 12.8206L40.1057 12.832L2.22695 12.832C1.18095 12.832 0.333008 12.2724 0.333008 11.582Z" fill="#011632"/>
<path d="M30.618 2.38615C30.1288 1.89904 30.1271 1.10759 30.6142 0.618385C31.057 0.173653 31.7514 0.131815 32.2415 0.493851L32.382 0.614578L42.4653 10.6546C42.9114 11.0987 42.952 11.7956 42.587 12.2857L42.4654 12.4261L32.3821 22.4677C31.8929 22.9549 31.1014 22.9532 30.6143 22.4641C30.1714 22.0194 30.1325 21.3249 30.4966 20.8363L30.6179 20.6963L39.8113 11.5399L30.618 2.38615Z" fill="#011632"/>
</svg>
