<svg width="24" height="25" viewBox="0 0 24 25" fill="none" xmlns="http://www.w3.org/2000/svg">
<path fill-rule="evenodd" clip-rule="evenodd" d="M3.28872 4.41793L3.36127 4.34211C5.28869 2.41452 6.54385 1.90359 7.88307 2.6737C8.2683 2.89523 8.62945 3.20531 9.12054 3.70409L10.6269 5.26611C11.4589 6.17401 11.6481 7.04486 11.3772 8.06473L11.3398 8.19975L11.2984 8.334L11.097 8.92482C10.666 10.2498 10.846 10.9974 12.3795 12.5305C13.9742 14.1248 14.7186 14.2552 16.1457 13.7565L16.4001 13.668L16.7077 13.5682L16.8423 13.5308C17.9263 13.2416 18.842 13.4724 19.8132 14.4429L21.0269 15.6153L21.3842 15.9667C21.7803 16.3706 22.0421 16.6907 22.2355 17.029C23.0008 18.3678 22.4893 19.6222 20.5063 21.5978L20.3177 21.789C20.0216 22.0743 19.745 22.2787 19.3386 22.4717C18.6565 22.7955 17.8506 22.9176 16.9142 22.7874C14.6067 22.4665 11.6802 20.6459 7.97188 16.9385C7.67002 16.6367 7.3809 16.3408 7.10425 16.0506L6.56748 15.4777C1.53762 10.0129 1.09389 6.65596 3.15518 4.55058L3.28872 4.41793ZM7.90639 4.61159C7.58059 4.2904 7.34393 4.0946 7.13529 3.97462C6.67376 3.70922 6.17547 3.8214 5.25327 4.61514L4.9635 4.874C4.91296 4.92066 4.86126 4.96909 4.80835 5.01934L4.47608 5.34297L4.44614 5.38038L4.22088 5.60669C3.67653 6.1627 3.41868 6.8413 3.64088 8.00833C4.00548 9.92335 5.67439 12.5212 9.03238 15.8783C12.5313 19.3763 15.1971 21.0348 17.1208 21.3023C18.2422 21.4583 18.8142 21.1867 19.3975 20.5891L19.8424 20.1401C20.051 19.9218 20.2292 19.724 20.3797 19.5432L20.585 19.2846C21.1097 18.5857 21.1576 18.1665 20.9332 17.7739C20.8478 17.6246 20.7236 17.4608 20.5429 17.2607L20.2976 17.0017L20.1525 16.8565L18.6212 15.3779C18.1095 14.906 17.7599 14.839 17.2289 14.9807L17.0757 15.0248L16.4414 15.2401C14.6013 15.8344 13.2738 15.5462 11.3189 13.5918C9.29427 11.5677 9.05682 10.216 9.73519 8.26983L9.77871 8.14477L9.89905 7.78219L9.95821 7.55109C10.0631 7.04812 9.94334 6.69743 9.40266 6.15667C9.3804 6.13441 9.35552 6.10932 9.32845 6.08186L7.90639 4.61159Z" fill="#CFCFCF"/>
</svg>
