<svg width="20" height="20" viewBox="0 0 20 20" fill="none" xmlns="http://www.w3.org/2000/svg">
<path fill-rule="evenodd" clip-rule="evenodd" d="M12.3558 0.00792976C12.1328 -0.0240483 11.9087 0.0419064 11.7304 0.183809C11.5472 0.32771 11.4326 0.535567 11.4077 0.768408C11.355 1.23908 11.6946 1.66479 12.1646 1.71776C15.4063 2.07951 17.9259 4.60477 18.2904 7.85654C18.3392 8.29224 18.7047 8.62101 19.1409 8.62101C19.1738 8.62101 19.2057 8.61902 19.2385 8.61502C19.4666 8.59004 19.6698 8.47711 19.8132 8.29724C19.9556 8.11736 20.0203 7.89351 19.9944 7.66467C19.5403 3.60746 16.4002 0.45862 12.3558 0.00792976ZM12.4181 3.48994C11.9421 3.402 11.5048 3.70579 11.4142 4.17047C11.3236 4.63515 11.6283 5.08884 12.0914 5.17978C13.4857 5.45159 14.5623 6.53085 14.8351 7.92989V7.93089C14.9128 8.33361 15.2674 8.62641 15.6757 8.62641C15.7305 8.62641 15.7852 8.62141 15.841 8.61142C16.3041 8.51849 16.6088 8.0658 16.5182 7.60012C16.1109 5.51055 14.5025 3.89666 12.4181 3.48994ZM14.0001 13.0905C14.4515 12.8302 14.9615 12.5362 15.6047 12.673C16.1873 12.7959 18.1731 14.4078 18.7169 14.9665C19.0734 15.3322 19.2716 15.7099 19.3025 16.0877C19.3562 17.5697 17.3425 19.2615 16.976 19.4724C16.489 19.8231 15.9224 20 15.286 20C14.6357 20 13.9106 19.8151 13.1199 19.4464C8.82956 17.6556 2.27553 11.231 0.542661 6.97395C-0.17638 5.38903 -0.18136 4.08193 0.53071 3.09961C0.814542 2.63892 2.43288 0.713245 3.88192 0.774204C4.26733 0.807181 4.64179 1.00505 5.00928 1.3648C5.56499 1.90942 7.13653 3.90106 7.25803 4.48565C7.39247 5.13521 7.09769 5.65185 6.83576 6.10554C6.7799 6.20307 6.70463 6.31881 6.62217 6.44561C6.3092 6.92683 5.89264 7.56735 6.04004 7.97626C7.09669 10.5705 9.53764 12.8339 12.133 13.8972C12.5343 14.0431 13.1745 13.6235 13.6542 13.3092C13.7791 13.2273 13.8932 13.1525 13.9893 13.0967L14.0001 13.0905Z" fill="#25B4F8"/>
</svg>
