<svg width="30" height="30" viewBox="0 0 30 30" fill="none" xmlns="http://www.w3.org/2000/svg">
<path d="M23.125 11.25H18.75V6.875C18.749 6.0465 18.4195 5.25221 17.8336 4.66637C17.2478 4.08053 16.4535 3.75098 15.625 3.75H6.875C6.0465 3.75098 5.25221 4.08053 4.66637 4.66637C4.08053 5.25221 3.75098 6.0465 3.75 6.875V12.5C3.75095 13.2201 4.00012 13.9178 4.45551 14.4756C4.9109 15.0334 5.54467 15.4171 6.25 15.5621V17.5323C6.25087 17.7774 6.32611 18.0165 6.46578 18.2179C6.60545 18.4193 6.80295 18.5735 7.03219 18.6603C7.18278 18.7198 7.34325 18.7505 7.50519 18.7506C7.67883 18.7507 7.85063 18.7149 8.00969 18.6452C8.16875 18.5755 8.31162 18.4736 8.42925 18.3459L10.9454 15.625H11.25V20C11.251 20.8285 11.5805 21.6228 12.1664 22.2086C12.7522 22.7945 13.5465 23.124 14.375 23.125H19.0521L21.5722 25.8429C21.6902 25.9711 21.8335 26.0734 21.993 26.1433C22.1526 26.2132 22.3249 26.2493 22.4991 26.2491C22.6601 26.2488 22.8196 26.2186 22.9696 26.16C23.1987 26.073 23.3959 25.9184 23.5352 25.7169C23.6746 25.5154 23.7495 25.2763 23.75 25.0313V23.0625C24.4554 22.9175 25.0892 22.5337 25.5446 21.9758C26 21.418 26.2491 20.7201 26.25 20V14.375C26.249 13.5465 25.9195 12.7522 25.3336 12.1664C24.7478 11.5805 23.9535 11.251 23.125 11.25ZM10.672 14.375C10.5858 14.375 10.5005 14.3928 10.4215 14.4274C10.3425 14.4619 10.2715 14.5125 10.213 14.5758L7.5 17.5324V15C7.5 14.8342 7.43415 14.6753 7.31694 14.5581C7.19973 14.4408 7.04076 14.375 6.875 14.375C6.37789 14.3745 5.90129 14.1767 5.54978 13.8252C5.19827 13.4737 5.00055 12.9971 5 12.5V6.875C5.00055 6.37789 5.19827 5.90129 5.54978 5.54978C5.90129 5.19827 6.37789 5.00055 6.875 5H15.625C16.1221 5.00055 16.5987 5.19827 16.9502 5.54978C17.3017 5.90129 17.4995 6.37789 17.5 6.875V12.5C17.4995 12.9971 17.3017 13.4737 16.9502 13.8252C16.5987 14.1767 16.1221 14.3745 15.625 14.375H10.672ZM25 20C24.9995 20.4971 24.8017 20.9737 24.4502 21.3252C24.0987 21.6767 23.6221 21.8745 23.125 21.875C22.9592 21.875 22.8003 21.9408 22.6831 22.0581C22.5658 22.1753 22.5 22.3342 22.5 22.5L22.4896 24.9938L19.7834 22.075C19.7248 22.0119 19.6539 21.9616 19.575 21.9272C19.4962 21.8928 19.4111 21.875 19.325 21.875H14.375C13.8779 21.8745 13.4013 21.6767 13.0498 21.3252C12.6983 20.9737 12.5005 20.4971 12.5 20V15.625H15.625C16.4535 15.624 17.2478 15.2945 17.8336 14.7086C18.4195 14.1228 18.749 13.3285 18.75 12.5H23.125C23.6221 12.5005 24.0987 12.6983 24.4502 13.0498C24.8017 13.4013 24.9995 13.8779 25 14.375V20Z" fill="white"/>
</svg>
