<svg width="20" height="20" viewBox="0 0 20 20" fill="none" xmlns="http://www.w3.org/2000/svg">
<mask id="mask0_201_4901" style="mask-type:luminance" maskUnits="userSpaceOnUse" x="3" y="1" width="15" height="18">
<path fill-rule="evenodd" clip-rule="evenodd" d="M3.3335 1.66797H17.4725V18.631H3.3335V1.66797Z" fill="white"/>
</mask>
<g mask="url(#mask0_201_4901)">
<path fill-rule="evenodd" clip-rule="evenodd" d="M10.403 2.91797C9.69634 2.91797 5.23801 4.48797 4.72384 4.91714C4.57217 5.06964 4.56634 5.33464 4.59884 7.1088C4.61384 7.9638 4.63467 9.12547 4.63467 10.7338C4.63467 15.068 9.40301 16.9921 10.4022 17.3463C11.4005 16.9905 16.1713 15.0555 16.1713 10.7338C16.1713 9.1238 16.1922 7.9613 16.208 7.1063C16.2397 5.3338 16.2338 5.0688 16.073 4.9088C15.5688 4.48797 11.1097 2.91797 10.403 2.91797ZM10.403 18.6313C10.3422 18.6313 10.2813 18.623 10.2222 18.6046C9.94301 18.5205 3.38467 16.4688 3.38467 10.7338C3.38467 9.1363 3.36384 7.98047 3.34884 7.13214C3.31051 5.01297 3.30217 4.5713 3.84967 4.02464C4.50384 3.3688 9.45801 1.66797 10.403 1.66797C11.3472 1.66797 16.3013 3.3688 16.9572 4.02464C17.5038 4.5713 17.4955 5.01297 17.4572 7.12964C17.4422 7.97797 17.4213 9.1338 17.4213 10.7338C17.4213 16.4688 10.863 18.5205 10.5838 18.6046C10.5247 18.623 10.4638 18.6313 10.403 18.6313Z" fill="#1376F8"/>
</g>
<path fill-rule="evenodd" clip-rule="evenodd" d="M9.81436 12.1014C9.64852 12.1014 9.48936 12.0355 9.37186 11.918L7.79519 10.3397C7.55186 10.0955 7.55186 9.69885 7.79602 9.45552C8.03936 9.21135 8.43602 9.21135 8.68019 9.45552L9.81436 10.5914L12.621 7.78469C12.8652 7.54052 13.2602 7.54052 13.5044 7.78469C13.7485 8.02885 13.7485 8.42469 13.5044 8.66885L10.256 11.918C10.1394 12.0355 9.98019 12.1014 9.81436 12.1014Z" fill="#1376F8"/>
</svg>
