<svg width="27" height="27" viewBox="0 0 27 27" fill="none" xmlns="http://www.w3.org/2000/svg">
<g clip-path="url(#clip0_201_4581)">
<path d="M4.44914 13.8469L4.44891 13.8463L4.44811 13.8444C4.4046 13.7395 3.61094 11.8259 3.61094 10.0392C3.61094 4.5861 8.04704 0.15 13.5002 0.15C18.9533 0.15 23.3894 4.5861 23.3894 10.0392C23.3894 11.8388 22.5853 13.7666 22.5519 13.8466L22.5518 13.8469C22.292 14.4635 21.7817 15.4179 21.4116 15.9793L21.4115 15.9794L14.699 26.1498C14.699 26.1498 14.699 26.1498 14.699 26.1498C14.4091 26.5893 13.9734 26.85 13.5002 26.85C13.0269 26.85 12.5913 26.5893 12.3013 26.1492L4.44914 13.8469ZM4.44914 13.8469C4.70895 14.4636 5.21974 15.418 5.58929 15.9793L5.58935 15.9794L12.3013 26.1491L4.44914 13.8469ZM21.3055 13.3225L21.306 13.3215L21.3061 13.3213C21.3066 13.3201 21.3094 13.3133 21.3146 13.3004C21.3203 13.2865 21.3284 13.2663 21.3386 13.2402C21.3591 13.188 21.388 13.1125 21.4225 13.0174C21.4917 12.8272 21.5832 12.5591 21.6745 12.2438C21.8575 11.6117 22.0377 10.7959 22.0377 10.0392C22.0377 5.33171 18.2077 1.50167 13.5002 1.50167C8.79264 1.50167 4.96261 5.33171 4.96261 10.0392C4.96261 11.5548 5.68459 13.296 5.69549 13.3223L5.69551 13.3223L5.60314 13.3606L5.69535 13.322L21.3055 13.3225ZM21.3055 13.3225C21.0782 13.8643 20.6084 14.7416 20.2829 15.2352L13.5704 25.4056L13.5704 25.4057M21.3055 13.3225L13.5704 25.4057M13.5704 25.4057C13.5395 25.4526 13.5174 25.4824 13.5004 25.5004L13.5704 25.4057Z" fill="white" stroke="white" stroke-width="0.2"/>
<path d="M13.4999 4.75547C10.5868 4.75547 8.21738 7.12548 8.21738 10.038C8.21738 12.9505 10.5868 15.3205 13.4999 15.3205C16.413 15.3205 18.7824 12.9505 18.7824 10.038C18.7824 7.12548 16.413 4.75547 13.4999 4.75547ZM13.4999 13.9689C11.333 13.9689 9.56906 12.2055 9.56906 10.038C9.56906 7.87051 11.333 6.10714 13.4999 6.10714C15.6668 6.10714 17.4308 7.87051 17.4308 10.038C17.4308 12.2055 15.6668 13.9689 13.4999 13.9689Z" fill="white" stroke="white" stroke-width="0.2"/>
</g>
<defs>
<clipPath id="clip0_201_4581">
<rect width="26.5" height="26.5" fill="white" transform="translate(0.25 0.25)"/>
</clipPath>
</defs>
</svg>
