<svg width="27" height="27" viewBox="0 0 27 27" fill="none" xmlns="http://www.w3.org/2000/svg">
<g clip-path="url(#clip0_201_4595)">
<path d="M5.39963 17.6154C8.01339 20.7398 11.1598 23.1999 14.751 24.9405C16.1182 25.5885 17.9468 26.3572 19.984 26.489C20.1103 26.4945 20.2311 26.5 20.3574 26.5C21.7246 26.5 22.8229 26.0278 23.7179 25.0558C23.7234 25.0504 23.7344 25.0394 23.7399 25.0284C24.0584 24.644 24.4208 24.2981 24.7997 23.9302C25.0577 23.6831 25.3213 23.425 25.5739 23.1614C26.7435 21.9424 26.7435 20.3939 25.5629 19.2133L22.2628 15.9132C21.7027 15.3311 21.0328 15.0236 20.3299 15.0236C19.627 15.0236 18.9516 15.3311 18.3751 15.9077L16.4093 17.8735C16.2281 17.7692 16.0414 17.6758 15.8656 17.588C15.646 17.4781 15.4428 17.3738 15.2616 17.2585C13.4715 16.1218 11.8462 14.6392 10.2922 12.7338C9.50697 11.7399 8.97982 10.9053 8.61192 10.0542C9.12808 9.58744 9.6113 9.09874 10.078 8.62101C10.2428 8.45079 10.413 8.28056 10.5832 8.11034C11.1763 7.5173 11.4947 6.83092 11.4947 6.13355C11.4947 5.43618 11.1817 4.74979 10.5832 4.15675L8.94687 2.52041C8.75469 2.32822 8.57348 2.14153 8.38678 1.94934C8.02437 1.57594 7.64549 1.19157 7.27209 0.845628C6.70651 0.291028 6.04209 0 5.33923 0C4.64186 0 3.97195 0.291028 3.3844 0.851119L1.33073 2.90479C0.583945 3.65157 0.161131 4.5576 0.0732731 5.6064C-0.0310576 6.91877 0.21055 8.31351 0.836535 9.99928C1.79748 12.6075 3.24712 15.0291 5.39963 17.6154ZM1.4131 5.72172C1.47899 4.9914 1.75904 4.38189 2.28618 3.85474L4.32887 1.81206C4.64735 1.50456 4.99878 1.34532 5.33923 1.34532C5.67419 1.34532 6.01463 1.50456 6.32762 1.82304C6.69553 2.16349 7.04147 2.52041 7.41486 2.8993C7.60156 3.09148 7.79375 3.28367 7.98593 3.48135L9.62228 5.1177C9.96273 5.45814 10.1384 5.80408 10.1384 6.14453C10.1384 6.48498 9.96273 6.83092 9.62228 7.17136C9.45205 7.34159 9.28183 7.5173 9.11161 7.68753C8.60094 8.20369 8.12321 8.6924 7.59607 9.15914C7.58508 9.17012 7.57959 9.17561 7.56861 9.18659C7.11285 9.64235 7.18424 10.0761 7.29406 10.4056C7.29955 10.4221 7.30504 10.4331 7.31053 10.4495C7.73334 11.4654 8.32089 12.4318 9.2379 13.585C10.8852 15.6167 12.6204 17.1926 14.5313 18.4061C14.7674 18.5599 15.02 18.6807 15.2561 18.8015C15.4758 18.9113 15.679 19.0156 15.8602 19.131C15.8821 19.1419 15.8986 19.1529 15.9206 19.1639C16.1018 19.2573 16.2775 19.3012 16.4532 19.3012C16.8925 19.3012 17.178 19.0211 17.2714 18.9278L19.325 16.8741C19.6435 16.5556 19.9895 16.3854 20.3299 16.3854C20.7472 16.3854 21.0877 16.6435 21.3018 16.8741L24.613 20.1798C25.2719 20.8387 25.2664 21.5525 24.5965 22.2499C24.3659 22.497 24.1242 22.7331 23.8662 22.9802C23.4818 23.3536 23.0809 23.738 22.7185 24.1718C22.0871 24.8527 21.3348 25.1712 20.3629 25.1712C20.2695 25.1712 20.1707 25.1657 20.0773 25.1602C18.2762 25.0449 16.6015 24.342 15.344 23.7435C11.9285 22.0907 8.9304 19.746 6.44294 16.7698C4.39476 14.3043 3.0165 12.009 2.10498 9.549C1.53939 8.03895 1.32524 6.82542 1.4131 5.72172Z" fill="white"/>
</g>
<defs>
<clipPath id="clip0_201_4595">
<rect width="26.5" height="26.5" fill="white"/>
</clipPath>
</defs>
</svg>
