<svg width="15" height="19" viewBox="0 0 15 19" fill="none" xmlns="http://www.w3.org/2000/svg">
<path d="M14.317 4.39545C13.2955 2.79636 11.7637 2.38772 10.5447 2.35849C9.33028 2.32931 8.13374 2.0087 7.06743 1.42675C5.99711 0.842561 4.4662 0.430545 2.78194 1.30464C-0.409239 2.96085 0.53198 7.69903 0.959635 8.58632C1.38729 9.47362 1.14972 10.4402 1.06443 12.5209C0.979151 14.6015 1.04082 16.6142 2.23741 16.6343C3.434 16.6545 4.09931 15.3732 4.86797 13.6259C4.92087 13.5057 4.97245 13.3935 5.0228 13.2886C5.36836 12.5691 6.44489 12.8576 6.38439 13.6535C6.37556 13.7694 6.36419 13.8925 6.34992 14.023C6.14195 15.9205 6.07749 17.3628 7.12385 17.9436C8.1702 18.5245 9.22993 16.8123 10.1964 14.9678C11.1629 13.1232 11.4404 12.1673 12.2544 11.6128C13.0684 11.0582 16.2526 7.42539 14.317 4.39545ZM6.24362 3.20783C6.15088 3.42976 5.8961 3.53487 5.67406 3.4432C5.5944 3.41091 3.82031 2.71923 2.77189 4.57744C2.67191 4.75458 2.46674 4.83511 2.27891 4.78478C2.24408 4.77545 2.20989 4.76168 2.17708 4.74312C1.9671 4.62466 1.89292 4.35837 2.01137 4.14839C3.16017 2.11224 5.12844 2.26947 6.00885 2.63672C6.23137 2.72961 6.33642 2.98528 6.24362 3.20783Z" fill="white"/>
</svg>
