<svg width="113" height="36" viewBox="0 0 113 36" fill="none" xmlns="http://www.w3.org/2000/svg">
<path d="M23.3745 11.1357C23.1428 10.9105 22.8178 10.8082 22.4997 10.8605C22.1811 10.9127 21.9058 11.1127 21.758 11.3998C21.2496 12.3875 20.6038 13.2952 19.844 14.0975C19.9198 13.5179 19.9579 12.9348 19.9579 12.3502C19.9579 11.2284 19.8076 10.074 19.5109 8.91863C18.5355 5.12375 15.9778 1.91449 12.4938 0.113763C12.1905 -0.0429603 11.829 -0.0374579 11.5306 0.128437C11.2322 0.2944 11.0367 0.598677 11.01 0.939027C10.7383 4.38763 8.96202 7.5251 6.13371 9.54901C6.09628 9.57596 6.05912 9.60327 6.02196 9.63045C5.94498 9.68676 5.87242 9.74002 5.80464 9.78473C5.79401 9.79181 5.7835 9.79901 5.77318 9.80641C3.99439 11.0799 2.52669 12.7776 1.5285 14.7164C0.514258 16.6885 0 18.8047 0 21.0061C0 22.1275 0.150336 23.282 0.446865 24.4375C2.01173 30.5283 7.49293 34.7822 13.7762 34.7822C21.372 34.7822 27.5515 28.6022 27.5515 21.0061C27.5515 17.2602 26.0681 13.7548 23.3745 11.1357Z" fill="#011632"/>
<path d="M13.2487 25.2953C15.5772 25.2953 17.4648 23.4078 17.4648 21.0793C17.4648 18.7509 15.5772 16.8633 13.2487 16.8633C10.9203 16.8633 9.03271 18.7509 9.03271 21.0793C9.03271 23.4078 10.9203 25.2953 13.2487 25.2953Z" fill="white"/>
<path d="M107.906 15.1607V12.5663H107.102V11.9922H109.357V12.5663H108.565V15.1607H107.906ZM109.683 15.1607V11.9922H110.321L111.507 13.5658H111.21L112.362 11.9922H113V15.1607H112.341V12.7195L112.605 12.779L111.384 14.3526H111.299L110.121 12.779L110.342 12.7195V15.1607H109.683Z" fill="#011632"/>
<path d="M44.1228 28.8252C45.1846 28.8252 46.1234 28.6313 46.9402 28.2434C47.7567 27.8351 48.3794 27.2227 48.808 26.4061V28.4577H53.0953V11.7383H48.5018V21.5066C48.5018 22.4661 48.2161 23.2418 47.6446 23.8339C47.0727 24.4055 46.3379 24.6913 45.4399 24.6913C44.5414 24.6913 43.8067 24.4055 43.2348 23.8339C42.6633 23.2418 42.3775 22.4661 42.3775 21.5066V11.7383H37.7844V21.8741C37.7844 23.9564 38.3251 25.6406 39.4072 26.9266C40.5098 28.1924 42.0814 28.8252 44.1228 28.8252Z" fill="#011632"/>
<path d="M56.4524 10.2378H61.0455V5.64453H56.4524V10.2378ZM56.4524 28.4577H61.0455V11.7382H56.4524V28.4577Z" fill="#011632"/>
<path d="M66.428 28.458H71.0211V15.7194H74.6037V11.7385H71.0211V11.4936C71.0211 10.0033 71.8888 9.25815 73.624 9.25815C73.9098 9.25815 74.2467 9.2888 74.6345 9.35004V5.43046C74.1651 5.32837 73.624 5.27734 73.0113 5.27734C70.9291 5.27734 69.3063 5.81834 68.1425 6.90028C66.9995 7.98227 66.428 9.51336 66.428 11.4936V11.7385H63.6106V15.7194H66.428V28.458Z" fill="#011632"/>
<path d="M76.9663 28.4579H81.5598V19.4551C81.5598 18.2098 81.9068 17.2504 82.6007 16.5767C83.2951 15.8825 84.2035 15.5355 85.3261 15.5355H86.7652V11.5547H85.7855C84.7646 11.5547 83.8562 11.7486 83.0602 12.1365C82.2846 12.504 81.6823 13.2083 81.2537 14.2494V11.7384H76.9663V28.4579Z" fill="#011632"/>
<path d="M91.3815 35.2558C94.4434 35.2558 96.6585 33.5103 98.0264 30.0195L105.192 11.7383H100.262L96.3116 22.4865L92.3612 11.7383H87.4311L94.0148 28.4577L93.7086 29.1621C93.4637 29.7133 93.1472 30.2032 92.7594 30.6319C92.3716 31.0606 91.7285 31.275 90.83 31.275C90.0952 31.275 89.4013 31.1729 88.7478 30.9687V34.7352C89.0951 34.9189 89.4929 35.0516 89.9423 35.1333C90.4118 35.2149 90.8916 35.2558 91.3815 35.2558Z" fill="#011632"/>
</svg>
